<?xml version="1.0" standalone="no"?>
<!DOCTYPE svg PUBLIC "-//W3C//DTD SVG 20010904//EN"
 "http://www.w3.org/TR/2001/REC-SVG-20010904/DTD/svg10.dtd">
<svg version="1.0" xmlns="http://www.w3.org/2000/svg"
 width="116.000000pt" height="116.000000pt" viewBox="0 0 116.000000 116.000000"
 preserveAspectRatio="xMidYMid meet">
<metadata>
Created by potrace 1.11, written by Peter Selinger 2001-2013
</metadata>
<g transform="translate(0.000000,116.000000) scale(0.100000,-0.100000)"
fill="#000000" stroke="none">
<path d="M165 1067 c-138 -66 -198 -215 -146 -361 25 -72 95 -183 159 -255
l49 -55 33 24 c116 83 262 226 315 309 45 72 42 100 -11 101 -37 0 -48 24 -35
76 12 45 11 49 -16 82 -16 19 -53 49 -82 65 -45 26 -67 31 -135 34 -70 4 -88
1 -131 -20z m157 -169 c3 -43 3 -43 46 -46 42 -3 42 -3 42 -43 0 -39 -1 -40
-32 -39 -56 3 -58 2 -58 -40 0 -40 0 -40 -38 -40 -37 0 -38 1 -34 34 5 40 -9
51 -55 47 -32 -2 -33 -2 -33 38 0 40 0 40 43 43 42 3 42 3 45 46 3 41 4 42 37
42 33 0 34 -1 37 -42z"/>
<path d="M741 1059 c-46 -23 -75 -47 -107 -88 -24 -31 -43 -60 -41 -65 2 -6
16 -14 33 -19 16 -5 35 -14 42 -20 22 -17 13 -71 -19 -121 -32 -47 -186 -209
-307 -320 -60 -56 -62 -59 -46 -77 9 -11 22 -19 28 -19 18 0 131 92 248 201
102 95 138 115 138 77 0 -15 -218 -229 -284 -279 -49 -36 -55 -62 -18 -67 28
-4 110 60 260 203 100 95 132 112 132 68 0 -21 -150 -170 -258 -257 -73 -59
-80 -71 -50 -90 22 -13 95 43 250 193 78 75 123 111 133 107 8 -3 15 -11 15
-17 0 -7 -74 -87 -165 -177 -132 -132 -163 -167 -154 -178 25 -30 51 -13 222
143 170 155 321 351 352 456 34 114 11 222 -65 297 -55 56 -118 80 -210 80
-55 0 -78 -6 -129 -31z m112 -183 c8 -20 -18 -39 -43 -31 -20 6 -26 25 -13 38
12 12 51 7 56 -7z m122 4 c8 -13 -12 -40 -29 -40 -22 0 -39 18 -33 34 7 18 52
22 62 6z m-121 -125 c7 -19 -19 -38 -44 -30 -24 8 -26 31 -3 43 20 12 39 6 47
-13z m126 -4 c0 -17 -30 -32 -50 -26 -24 8 -26 31 -3 44 18 10 53 -2 53 -18z"/>
</g>
</svg>
