<svg xmlns="http://www.w3.org/2000/svg" width="448" height="448" viewBox="0 0 448 448"><path d="M320 152.5q-14 6.25-30.25 8.5 17-10 23.25-29.25-16.25 9.5-33.5 12.75-15.25-16.5-38.25-16.5-21.75 0-37.125 15.375T188.75 180.5q0 7.25 1.25 12-32.25-1.75-60.5-16.25t-48-38.75Q74.25 150 74.25 164q0 28.5 22.75 43.75-11.75-.25-25-6.5v.5q0 18.75 12.5 33.375t30.75 18.125q-7.25 2-12.75 2-3.25 0-9.75-1 5.25 15.75 18.625 26t30.375 10.5q-29 22.5-65.25 22.5-6.5 0-12.5-.75 37 23.5 80.5 23.5 28 0 52.5-8.875t42-23.75 30.125-34.25 18.75-40.5T294 186.5q0-4.5-.25-6.75Q309.5 168.5 320 152.5zm64-48.5v240q0 29.75-21.125 50.875T312 416H72q-29.75 0-50.875-21.125T0 344V104q0-29.75 21.125-50.875T72 32h240q29.75 0 50.875 21.125T384 104z"/></svg>